<svg width="60" height="15" viewBox="0 0 60 15" fill="none" xmlns="http://www.w3.org/2000/svg">
  <path d="M39.508 11.232V12H33.568V3.6H39.328V4.368H34.456V7.356H38.8V8.112H34.456V11.232H39.508ZM44.9793 12.072C43.8913 12.072 43.0433 11.76 42.4353 11.136C41.8273 10.512 41.5233 9.604 41.5233 8.412V3.6H42.4113V8.376C42.4113 9.352 42.6313 10.08 43.0713 10.56C43.5113 11.04 44.1473 11.28 44.9793 11.28C45.8193 11.28 46.4593 11.04 46.8993 10.56C47.3393 10.08 47.5593 9.352 47.5593 8.376V3.6H48.4233V8.412C48.4233 9.604 48.1193 10.512 47.5113 11.136C46.9113 11.76 46.0673 12.072 44.9793 12.072ZM56.8352 12L54.9152 9.3C54.6992 9.324 54.4752 9.336 54.2432 9.336H51.9872V12H51.0992V3.6H54.2432C55.3152 3.6 56.1552 3.856 56.7632 4.368C57.3712 4.88 57.6752 5.584 57.6752 6.48C57.6752 7.136 57.5072 7.692 57.1712 8.148C56.8432 8.596 56.3712 8.92 55.7552 9.12L57.8072 12H56.8352ZM54.2192 8.58C55.0512 8.58 55.6872 8.396 56.1272 8.028C56.5672 7.66 56.7872 7.144 56.7872 6.48C56.7872 5.8 56.5672 5.28 56.1272 4.92C55.6872 4.552 55.0512 4.368 54.2192 4.368H51.9872V8.58H54.2192Z" fill="#455A64"/>
  <rect width="22.8978" height="15" rx="3.2" fill="white"/>
  <mask id="mask0" mask-type="alpha" maskUnits="userSpaceOnUse" x="0" y="0" width="23" height="15">
    <rect width="22.8978" height="15" rx="1" fill="white"/>
  </mask>
  <g mask="url(#mask0)">
    <rect width="22.8978" height="15" fill="#043CAE"/>
    <path fill-rule="evenodd" clip-rule="evenodd" d="M10.6763 3.20718L11.4473 3.00008L12.2183 3.20718L11.9925 2.50008L12.2183 1.79297L11.4473 2.00008L10.6763 1.79297L10.9021 2.50008L10.6763 3.20718ZM10.6763 13.2073L11.4473 13.0002L12.2183 13.2073L11.9925 12.5002L12.2183 11.7931L11.4473 12.0002L10.6763 11.7931L10.9021 12.5002L10.6763 13.2073ZM16.9005 7.99993L16.1295 8.20704L16.3553 7.49993L16.1295 6.79283L16.9005 6.99993L17.6715 6.79283L17.4457 7.49993L17.6715 8.20704L16.9005 7.99993ZM5.2251 8.20704L5.99611 7.99993L6.76711 8.20704L6.54129 7.49993L6.76711 6.79283L5.99611 6.99993L5.2251 6.79283L5.45092 7.49993L5.2251 8.20704ZM16.1684 5.50022L15.3974 5.70732L15.6232 5.00022L15.3974 4.29311L16.1684 4.50022L16.9394 4.29311L16.7136 5.00022L16.9394 5.70732L16.1684 5.50022ZM5.95521 10.7072L6.72622 10.5001L7.49723 10.7072L7.27141 10.0001L7.49723 9.29297L6.72622 9.50008L5.95521 9.29297L6.18104 10.0001L5.95521 10.7072ZM14.1738 3.66962L13.4028 3.87672L13.6286 3.16962L13.4028 2.46251L14.1738 2.66962L14.9448 2.46251L14.719 3.16962L14.9448 3.87672L14.1738 3.66962ZM7.9516 12.5373L8.72261 12.3302L9.49362 12.5373L9.26779 11.8302L9.49362 11.1231L8.72261 11.3302L7.9516 11.1231L8.17742 11.8302L7.9516 12.5373ZM16.1684 10.5001L15.3974 10.7072L15.6232 10.0001L15.3974 9.29297L16.1684 9.50008L16.9394 9.29297L16.7136 10.0001L16.9394 10.7072L16.1684 10.5001ZM5.95521 5.70732L6.72622 5.50022L7.49723 5.70732L7.27141 5.00022L7.49723 4.29311L6.72622 4.50022L5.95521 4.29311L6.18104 5.00022L5.95521 5.70732ZM14.1738 12.3302L13.4028 12.5373L13.6286 11.8302L13.4028 11.1231L14.1738 11.3302L14.9448 11.1231L14.719 11.8302L14.9448 12.5373L14.1738 12.3302ZM7.9516 3.87672L8.72261 3.66962L9.49362 3.87672L9.26779 3.16962L9.49362 2.46251L8.72261 2.66962L7.9516 2.46251L8.17742 3.16962L7.9516 3.87672Z" fill="#FFD429"/>
  </g>
</svg>
