<svg width="42" height="11" viewBox="0 0 42 11" fill="none" xmlns="http://www.w3.org/2000/svg">
  <path d="M7.154 8.544C8.19 8.544 9.06267 8.15667 9.772 7.382L10.934 8.502C10.486 9.034 9.926 9.44 9.254 9.72C8.59133 10 7.85867 10.14 7.056 10.14C6.244 10.14 5.488 9.99067 4.788 9.692C4.09733 9.39333 3.50933 8.97333 3.024 8.432C2.548 7.89067 2.212 7.26533 2.016 6.556H0.42V5.576H1.834C1.82467 5.47333 1.82 5.31467 1.82 5.1C1.82 4.88533 1.82467 4.72667 1.834 4.624H0.42V3.644H2.016C2.212 2.93467 2.548 2.30933 3.024 1.768C3.50933 1.22667 4.09733 0.806666 4.788 0.508C5.488 0.209333 6.244 0.0599995 7.056 0.0599995C7.85867 0.0599995 8.59133 0.2 9.254 0.48C9.926 0.76 10.486 1.166 10.934 1.698L9.772 2.804C9.06267 2.03867 8.19 1.656 7.154 1.656C6.40733 1.656 5.74933 1.83333 5.18 2.188C4.62 2.54267 4.20467 3.028 3.934 3.644H7.952V4.624H3.668C3.64933 4.82933 3.64 4.988 3.64 5.1C3.64 5.212 3.64933 5.37067 3.668 5.576H7.952V6.556H3.934C4.20467 7.172 4.62 7.65733 5.18 8.012C5.74933 8.36667 6.40733 8.544 7.154 8.544ZM15.8192 10.14C15.0352 10.14 14.3352 9.944 13.7192 9.552C13.1032 9.15067 12.6179 8.572 12.2632 7.816C11.9086 7.05067 11.7312 6.14533 11.7312 5.1C11.7312 4.05467 11.9086 3.154 12.2632 2.398C12.6179 1.63267 13.1032 1.054 13.7192 0.661999C14.3352 0.260666 15.0352 0.0599995 15.8192 0.0599995C16.6032 0.0599995 17.3032 0.260666 17.9192 0.661999C18.5446 1.054 19.0346 1.63267 19.3892 2.398C19.7439 3.154 19.9212 4.05467 19.9212 5.1C19.9212 6.14533 19.7439 7.05067 19.3892 7.816C19.0346 8.572 18.5446 9.15067 17.9192 9.552C17.3032 9.944 16.6032 10.14 15.8192 10.14ZM15.8192 8.558C16.5192 8.558 17.0699 8.26867 17.4712 7.69C17.8819 7.11133 18.0872 6.248 18.0872 5.1C18.0872 3.952 17.8819 3.08867 17.4712 2.51C17.0699 1.93133 16.5192 1.642 15.8192 1.642C15.1286 1.642 14.5779 1.93133 14.1672 2.51C13.7659 3.08867 13.5652 3.952 13.5652 5.1C13.5652 6.248 13.7659 7.11133 14.1672 7.69C14.5779 8.26867 15.1286 8.558 15.8192 8.558ZM22.0791 10.098C21.7618 10.098 21.4911 9.99067 21.2671 9.776C21.0431 9.552 20.9311 9.272 20.9311 8.936C20.9311 8.59067 21.0384 8.31067 21.2531 8.096C21.4771 7.88133 21.7524 7.774 22.0791 7.774C22.4058 7.774 22.6764 7.88133 22.8911 8.096C23.1151 8.31067 23.2271 8.59067 23.2271 8.936C23.2271 9.272 23.1151 9.552 22.8911 9.776C22.6671 9.99067 22.3964 10.098 22.0791 10.098ZM28.329 10.14C27.545 10.14 26.845 9.944 26.229 9.552C25.613 9.15067 25.1277 8.572 24.773 7.816C24.4183 7.05067 24.241 6.14533 24.241 5.1C24.241 4.05467 24.4183 3.154 24.773 2.398C25.1277 1.63267 25.613 1.054 26.229 0.661999C26.845 0.260666 27.545 0.0599995 28.329 0.0599995C29.113 0.0599995 29.813 0.260666 30.429 0.661999C31.0543 1.054 31.5443 1.63267 31.899 2.398C32.2537 3.154 32.431 4.05467 32.431 5.1C32.431 6.14533 32.2537 7.05067 31.899 7.816C31.5443 8.572 31.0543 9.15067 30.429 9.552C29.813 9.944 29.113 10.14 28.329 10.14ZM28.329 8.558C29.029 8.558 29.5797 8.26867 29.981 7.69C30.3917 7.11133 30.597 6.248 30.597 5.1C30.597 3.952 30.3917 3.08867 29.981 2.51C29.5797 1.93133 29.029 1.642 28.329 1.642C27.6383 1.642 27.0877 1.93133 26.677 2.51C26.2757 3.08867 26.075 3.952 26.075 5.1C26.075 6.248 26.2757 7.11133 26.677 7.69C27.0877 8.26867 27.6383 8.558 28.329 8.558ZM37.7489 10.14C36.9649 10.14 36.2649 9.944 35.6489 9.552C35.0329 9.15067 34.5476 8.572 34.1929 7.816C33.8383 7.05067 33.6609 6.14533 33.6609 5.1C33.6609 4.05467 33.8383 3.154 34.1929 2.398C34.5476 1.63267 35.0329 1.054 35.6489 0.661999C36.2649 0.260666 36.9649 0.0599995 37.7489 0.0599995C38.5329 0.0599995 39.2329 0.260666 39.8489 0.661999C40.4743 1.054 40.9643 1.63267 41.3189 2.398C41.6736 3.154 41.8509 4.05467 41.8509 5.1C41.8509 6.14533 41.6736 7.05067 41.3189 7.816C40.9643 8.572 40.4743 9.15067 39.8489 9.552C39.2329 9.944 38.5329 10.14 37.7489 10.14ZM37.7489 8.558C38.4489 8.558 38.9996 8.26867 39.4009 7.69C39.8116 7.11133 40.0169 6.248 40.0169 5.1C40.0169 3.952 39.8116 3.08867 39.4009 2.51C38.9996 1.93133 38.4489 1.642 37.7489 1.642C37.0583 1.642 36.5076 1.93133 36.0969 2.51C35.6956 3.08867 35.4949 3.952 35.4949 5.1C35.4949 6.248 35.6956 7.11133 36.0969 7.69C36.5076 8.26867 37.0583 8.558 37.7489 8.558Z" fill="#070C11"/>
</svg>
