<svg width="155" height="17" viewBox="0 0 155 17" fill="none" xmlns="http://www.w3.org/2000/svg">
  <path d="M36.5456 14.14C35.1923 14.14 34.1376 13.762 33.3816 13.006C32.6256 12.2407 32.2476 11.1487 32.2476 9.73V4.2H34.0676V9.66C34.0676 11.5827 34.8983 12.544 36.5596 12.544C38.2116 12.544 39.0376 11.5827 39.0376 9.66V4.2H40.8296V9.73C40.8296 11.1487 40.4516 12.2407 39.6956 13.006C38.949 13.762 37.899 14.14 36.5456 14.14ZM47.6858 6.44C48.6285 6.44 49.3845 6.71533 49.9538 7.266C50.5232 7.81667 50.8078 8.63333 50.8078 9.716V14H49.0578V9.94C49.0578 9.28667 48.9038 8.79667 48.5958 8.47C48.2878 8.134 47.8492 7.966 47.2798 7.966C46.6358 7.966 46.1272 8.162 45.7538 8.554C45.3805 8.93667 45.1938 9.492 45.1938 10.22V14H43.4438V6.524H45.1098V7.49C45.3992 7.14467 45.7632 6.88333 46.2018 6.706C46.6405 6.52867 47.1352 6.44 47.6858 6.44ZM53.2612 6.524H55.0112V14H53.2612V6.524ZM54.1432 5.292C53.8258 5.292 53.5598 5.194 53.3452 4.998C53.1305 4.79267 53.0232 4.54067 53.0232 4.242C53.0232 3.94333 53.1305 3.696 53.3452 3.5C53.5598 3.29467 53.8258 3.192 54.1432 3.192C54.4605 3.192 54.7265 3.29 54.9412 3.486C55.1558 3.67267 55.2632 3.91067 55.2632 4.2C55.2632 4.508 55.1558 4.76933 54.9412 4.984C54.7358 5.18933 54.4698 5.292 54.1432 5.292ZM62.0354 13.594C61.83 13.762 61.578 13.888 61.2794 13.972C60.99 14.056 60.682 14.098 60.3554 14.098C59.534 14.098 58.8994 13.8833 58.4514 13.454C58.0034 13.0247 57.7794 12.3993 57.7794 11.578V7.98H56.5474V6.58H57.7794V4.872H59.5294V6.58H61.5314V7.98H59.5294V11.536C59.5294 11.9 59.618 12.18 59.7954 12.376C59.9727 12.5627 60.2294 12.656 60.5654 12.656C60.9574 12.656 61.284 12.5533 61.5454 12.348L62.0354 13.594ZM70.4902 10.304C70.4902 10.4253 70.4809 10.598 70.4622 10.822H64.5962C64.6989 11.3727 64.9649 11.8113 65.3942 12.138C65.8329 12.4553 66.3742 12.614 67.0182 12.614C67.8395 12.614 68.5162 12.3433 69.0482 11.802L69.9862 12.88C69.6502 13.2813 69.2255 13.5847 68.7122 13.79C68.1989 13.9953 67.6202 14.098 66.9762 14.098C66.1549 14.098 65.4315 13.9347 64.8062 13.608C64.1809 13.2813 63.6955 12.8287 63.3502 12.25C63.0142 11.662 62.8462 10.9993 62.8462 10.262C62.8462 9.534 63.0095 8.88067 63.3362 8.302C63.6722 7.714 64.1342 7.25667 64.7222 6.93C65.3102 6.60333 65.9729 6.44 66.7102 6.44C67.4382 6.44 68.0869 6.60333 68.6562 6.93C69.2349 7.24733 69.6829 7.7 70.0002 8.288C70.3269 8.86667 70.4902 9.53867 70.4902 10.304ZM66.7102 7.84C66.1502 7.84 65.6742 8.008 65.2822 8.344C64.8995 8.67067 64.6662 9.10933 64.5822 9.66H68.8242C68.7495 9.11867 68.5209 8.68 68.1382 8.344C67.7555 8.008 67.2795 7.84 66.7102 7.84ZM79.7265 3.612V14H78.0465V13.034C77.7572 13.3887 77.3978 13.6547 76.9685 13.832C76.5485 14.0093 76.0818 14.098 75.5685 14.098C74.8498 14.098 74.2012 13.9393 73.6225 13.622C73.0532 13.3047 72.6052 12.8567 72.2785 12.278C71.9518 11.69 71.7885 11.018 71.7885 10.262C71.7885 9.506 71.9518 8.83867 72.2785 8.26C72.6052 7.68133 73.0532 7.23333 73.6225 6.916C74.2012 6.59867 74.8498 6.44 75.5685 6.44C76.0632 6.44 76.5158 6.524 76.9265 6.692C77.3372 6.86 77.6872 7.112 77.9765 7.448V3.612H79.7265ZM75.7785 12.6C76.1985 12.6 76.5765 12.5067 76.9125 12.32C77.2485 12.124 77.5145 11.8487 77.7105 11.494C77.9065 11.1393 78.0045 10.7287 78.0045 10.262C78.0045 9.79533 77.9065 9.38467 77.7105 9.03C77.5145 8.67533 77.2485 8.40467 76.9125 8.218C76.5765 8.022 76.1985 7.924 75.7785 7.924C75.3585 7.924 74.9805 8.022 74.6445 8.218C74.3085 8.40467 74.0425 8.67533 73.8465 9.03C73.6505 9.38467 73.5525 9.79533 73.5525 10.262C73.5525 10.7287 73.6505 11.1393 73.8465 11.494C74.0425 11.8487 74.3085 12.124 74.6445 12.32C74.9805 12.5067 75.3585 12.6 75.7785 12.6ZM89.8936 9.898L88.3396 11.494V14H86.5196V4.2H88.3396V9.226L93.1836 4.2H95.2276L91.1116 8.582L95.4796 14H93.3516L89.8936 9.898ZM96.6475 6.524H98.3975V14H96.6475V6.524ZM97.5295 5.292C97.2121 5.292 96.9461 5.194 96.7315 4.998C96.5168 4.79267 96.4095 4.54067 96.4095 4.242C96.4095 3.94333 96.5168 3.696 96.7315 3.5C96.9461 3.29467 97.2121 3.192 97.5295 3.192C97.8468 3.192 98.1128 3.29 98.3275 3.486C98.5421 3.67267 98.6495 3.91067 98.6495 4.2C98.6495 4.508 98.5421 4.76933 98.3275 4.984C98.1221 5.18933 97.8561 5.292 97.5295 5.292ZM105.17 6.44C106.112 6.44 106.868 6.71533 107.438 7.266C108.007 7.81667 108.292 8.63333 108.292 9.716V14H106.542V9.94C106.542 9.28667 106.388 8.79667 106.08 8.47C105.772 8.134 105.333 7.966 104.764 7.966C104.12 7.966 103.611 8.162 103.238 8.554C102.864 8.93667 102.678 9.492 102.678 10.22V14H100.928V6.524H102.594V7.49C102.883 7.14467 103.247 6.88333 103.686 6.706C104.124 6.52867 104.619 6.44 105.17 6.44ZM118.233 6.524V12.866C118.233 15.498 116.889 16.814 114.201 16.814C113.483 16.814 112.801 16.7207 112.157 16.534C111.513 16.3567 110.981 16.0953 110.561 15.75L111.345 14.434C111.672 14.7047 112.083 14.9193 112.577 15.078C113.081 15.246 113.59 15.33 114.103 15.33C114.925 15.33 115.527 15.1433 115.909 14.77C116.292 14.3967 116.483 13.8273 116.483 13.062V12.67C116.185 12.9967 115.821 13.244 115.391 13.412C114.962 13.58 114.491 13.664 113.977 13.664C113.268 13.664 112.624 13.5147 112.045 13.216C111.476 12.908 111.023 12.4787 110.687 11.928C110.361 11.3773 110.197 10.7473 110.197 10.038C110.197 9.32867 110.361 8.70333 110.687 8.162C111.023 7.61133 111.476 7.18667 112.045 6.888C112.624 6.58933 113.268 6.44 113.977 6.44C114.519 6.44 115.009 6.52867 115.447 6.706C115.895 6.88333 116.269 7.154 116.567 7.518V6.524H118.233ZM114.243 12.18C114.906 12.18 115.447 11.984 115.867 11.592C116.297 11.1907 116.511 10.6727 116.511 10.038C116.511 9.41267 116.297 8.904 115.867 8.512C115.447 8.12 114.906 7.924 114.243 7.924C113.571 7.924 113.021 8.12 112.591 8.512C112.171 8.904 111.961 9.41267 111.961 10.038C111.961 10.6727 112.171 11.1907 112.591 11.592C113.021 11.984 113.571 12.18 114.243 12.18ZM128.089 3.612V14H126.409V13.034C126.12 13.3887 125.761 13.6547 125.331 13.832C124.911 14.0093 124.445 14.098 123.931 14.098C123.213 14.098 122.564 13.9393 121.985 13.622C121.416 13.3047 120.968 12.8567 120.641 12.278C120.315 11.69 120.151 11.018 120.151 10.262C120.151 9.506 120.315 8.83867 120.641 8.26C120.968 7.68133 121.416 7.23333 121.985 6.916C122.564 6.59867 123.213 6.44 123.931 6.44C124.426 6.44 124.879 6.524 125.289 6.692C125.7 6.86 126.05 7.112 126.339 7.448V3.612H128.089ZM124.141 12.6C124.561 12.6 124.939 12.5067 125.275 12.32C125.611 12.124 125.877 11.8487 126.073 11.494C126.269 11.1393 126.367 10.7287 126.367 10.262C126.367 9.79533 126.269 9.38467 126.073 9.03C125.877 8.67533 125.611 8.40467 125.275 8.218C124.939 8.022 124.561 7.924 124.141 7.924C123.721 7.924 123.343 8.022 123.007 8.218C122.671 8.40467 122.405 8.67533 122.209 9.03C122.013 9.38467 121.915 9.79533 121.915 10.262C121.915 10.7287 122.013 11.1393 122.209 11.494C122.405 11.8487 122.671 12.124 123.007 12.32C123.343 12.5067 123.721 12.6 124.141 12.6ZM133.972 14.098C133.216 14.098 132.535 13.9347 131.928 13.608C131.321 13.2813 130.845 12.8287 130.5 12.25C130.164 11.662 129.996 10.9993 129.996 10.262C129.996 9.52467 130.164 8.86667 130.5 8.288C130.845 7.70933 131.321 7.25667 131.928 6.93C132.535 6.60333 133.216 6.44 133.972 6.44C134.737 6.44 135.423 6.60333 136.03 6.93C136.637 7.25667 137.108 7.70933 137.444 8.288C137.789 8.86667 137.962 9.52467 137.962 10.262C137.962 10.9993 137.789 11.662 137.444 12.25C137.108 12.8287 136.637 13.2813 136.03 13.608C135.423 13.9347 134.737 14.098 133.972 14.098ZM133.972 12.6C134.616 12.6 135.148 12.3853 135.568 11.956C135.988 11.5267 136.198 10.962 136.198 10.262C136.198 9.562 135.988 8.99733 135.568 8.568C135.148 8.13867 134.616 7.924 133.972 7.924C133.328 7.924 132.796 8.13867 132.376 8.568C131.965 8.99733 131.76 9.562 131.76 10.262C131.76 10.962 131.965 11.5267 132.376 11.956C132.796 12.3853 133.328 12.6 133.972 12.6ZM149.305 6.44C150.248 6.44 150.994 6.71533 151.545 7.266C152.096 7.80733 152.371 8.624 152.371 9.716V14H150.621V9.94C150.621 9.28667 150.476 8.79667 150.187 8.47C149.898 8.134 149.482 7.966 148.941 7.966C148.353 7.966 147.882 8.162 147.527 8.554C147.172 8.93667 146.995 9.48733 146.995 10.206V14H145.245V9.94C145.245 9.28667 145.1 8.79667 144.811 8.47C144.521 8.134 144.106 7.966 143.565 7.966C142.967 7.966 142.491 8.15733 142.137 8.54C141.791 8.92267 141.619 9.478 141.619 10.206V14H139.869V6.524H141.535V7.476C141.815 7.14 142.165 6.88333 142.585 6.706C143.005 6.52867 143.471 6.44 143.985 6.44C144.545 6.44 145.039 6.54733 145.469 6.762C145.908 6.96733 146.253 7.27533 146.505 7.686C146.813 7.294 147.21 6.99067 147.695 6.776C148.18 6.552 148.717 6.44 149.305 6.44Z" fill="white"/>
  <rect width="23.0157" height="16.8134" rx="1.04617" fill="white"/>
  <mask id="mask0" mask-type="alpha" maskUnits="userSpaceOnUse" x="0" y="0" width="24" height="17">
    <rect width="23.0157" height="16.8134" rx="1.64398" fill="white"/>
  </mask>
  <g mask="url(#mask0)">
    <rect width="23.0157" height="16.8134" fill="#0A17A7"/>
    <path fill-rule="evenodd" clip-rule="evenodd" d="M-1.05256 -1.61084L8.76838 5.16402V-1.12045H14.2483V5.16502L24.0706 -1.61076L25.2963 0.247768L17.5305 5.60491H23.0162V11.2094H17.5318L25.2972 16.5662L24.0715 18.4248L14.2483 11.6484V17.9347H8.76838V11.6494L-1.05344 18.4248L-2.27917 16.5663L5.48632 11.2094H0.00050354V5.60491H5.48762L-2.27829 0.247685L-1.05256 -1.61084Z" fill="white"/>
    <path d="M15.3448 5.32347L25.7556 -1.68115" stroke="#DB1F35" stroke-width="0.547992" stroke-linecap="round"/>
    <path d="M16.4495 11.5147L25.7822 17.9482" stroke="#DB1F35" stroke-width="0.547992" stroke-linecap="round"/>
    <path d="M6.58174 5.30497L-3.15308 -1.40479" stroke="#DB1F35" stroke-width="0.547992" stroke-linecap="round"/>
    <path d="M7.63759 11.4374L-3.15308 18.7559" stroke="#DB1F35" stroke-width="0.547992" stroke-linecap="round"/>
    <path fill-rule="evenodd" clip-rule="evenodd" d="M0 10.088H9.86386V16.8134H13.1518V10.088H23.0157V6.72536H13.1518V0H9.86386V6.72536H0V10.088Z" fill="#E6273E"/>
  </g>
</svg>
